<svg width="26" height="26" viewBox="0 0 26 26" fill="none" xmlns="http://www.w3.org/2000/svg">
<g filter="url(#filter0_d_56_1410)">
<circle cx="13" cy="13" r="8.5" fill="#F47220" stroke="#F47220"/>
<path d="M17.5 13.75H13.75V17.5C13.75 17.6989 13.671 17.8897 13.5303 18.0303C13.3897 18.171 13.1989 18.25 13 18.25C12.8011 18.25 12.6103 18.171 12.4697 18.0303C12.329 17.8897 12.25 17.6989 12.25 17.5V13.75H8.5C8.30109 13.75 8.11032 13.671 7.96967 13.5303C7.82902 13.3897 7.75 13.1989 7.75 13C7.75 12.8011 7.82902 12.6103 7.96967 12.4697C8.11032 12.329 8.30109 12.25 8.5 12.25H12.25V8.5C12.25 8.30109 12.329 8.11032 12.4697 7.96967C12.6103 7.82902 12.8011 7.75 13 7.75C13.1989 7.75 13.3897 7.82902 13.5303 7.96967C13.671 8.11032 13.75 8.30109 13.75 8.5V12.25H17.5C17.6989 12.25 17.8897 12.329 18.0303 12.4697C18.171 12.6103 18.25 12.8011 18.25 13C18.25 13.1989 18.171 13.3897 18.0303 13.5303C17.8897 13.671 17.6989 13.75 17.5 13.75Z" fill="white"/>
</g>
<defs>
<filter id="filter0_d_56_1410" x="0" y="0" width="26" height="26" filterUnits="userSpaceOnUse" color-interpolation-filters="sRGB">
<feFlood flood-opacity="0" result="BackgroundImageFix"/>
<feColorMatrix in="SourceAlpha" type="matrix" values="0 0 0 0 0 0 0 0 0 0 0 0 0 0 0 0 0 0 127 0" result="hardAlpha"/>
<feOffset/>
<feGaussianBlur stdDeviation="2"/>
<feComposite in2="hardAlpha" operator="out"/>
<feColorMatrix type="matrix" values="0 0 0 0 0 0 0 0 0 0 0 0 0 0 0 0 0 0 0.2 0"/>
<feBlend mode="normal" in2="BackgroundImageFix" result="effect1_dropShadow_56_1410"/>
<feBlend mode="normal" in="SourceGraphic" in2="effect1_dropShadow_56_1410" result="shape"/>
</filter>
</defs>
</svg>
