<svg width="137" height="100" viewBox="0 0 137 100" fill="none" xmlns="http://www.w3.org/2000/svg">
<circle cx="69" cy="50" r="48.5" stroke="#F47220" stroke-width="3"/>
<path d="M47.0048 55.18V41.46H50.4648L53.8048 51.8H53.8648L57.2048 41.46H60.6448V55.18H58.1848V44.52H58.1048L54.6648 55.18H52.6448L49.2248 44.52H49.1648V55.18H47.0048ZM66.6602 55.36C64.6602 55.36 63.5402 54.38 63.5402 52.36V44.88H65.8402V51.92C65.8402 53.04 66.2402 53.5 67.5202 53.5C68.4202 53.5 69.1602 53.18 69.8202 52.88V44.88H72.1202V55.18H70.1202L69.9202 54.28H69.8202C68.9602 54.9 67.9602 55.36 66.6602 55.36ZM78.3312 55.3C76.5512 55.3 75.4112 54.58 75.4112 52.64V46.68H73.9712V44.88H75.4112V42.46H77.6712V44.88H80.1312V46.68H77.6712V52.32C77.6712 53.18 77.9912 53.5 79.0712 53.5C79.4712 53.5 79.8912 53.44 80.2512 53.34V54.88C79.8512 55.08 79.2912 55.3 78.3312 55.3ZM86.8702 55.36C83.4502 55.36 81.7702 53.42 81.7702 50.16V49.88C81.7702 46.42 83.8702 44.72 86.4902 44.72C89.5302 44.72 90.8502 46.42 90.8502 49.7V50.66H84.1302C84.2702 52.8 85.3702 53.56 87.3302 53.56C88.6502 53.56 89.6102 53.26 90.5102 52.8V54.4C89.8102 54.86 88.6102 55.36 86.8702 55.36ZM86.4502 46.42C85.3902 46.42 84.2902 46.98 84.1302 49.08H88.5102C88.5102 47.14 87.7902 46.42 86.4502 46.42Z" fill="#F47220"/>
</svg>
