<svg width="350" height="350" viewBox="0 0 350 350" fill="none" xmlns="http://www.w3.org/2000/svg">
<rect x="12.5" y="12.5" width="325" height="325" rx="67.5" fill="white" stroke="#F89A65" stroke-width="25"/>
<g filter="url(#filter0_d_243_1796)">
<rect x="61.27" y="263.231" width="323" height="14.9535" transform="rotate(-45 61.27 263.231)" fill="#F89A65"/>
<path d="M55.1192 279.949L61.2682 263.201L71.867 273.8L55.1192 279.949Z" fill="#F89A65"/>
</g>
<circle cx="175" cy="154.566" r="120" fill="white"/>
<g filter="url(#filter1_d_243_1796)">
<g filter="url(#filter2_d_243_1796)">
<path d="M175 117.899C179.883 117.788 184.739 118.655 189.282 120.447C193.826 122.239 197.965 124.92 201.458 128.334C204.951 131.748 207.727 135.826 209.622 140.327C211.517 144.828 212.494 149.663 212.496 154.547C212.497 159.431 211.522 164.266 209.629 168.769C207.736 173.271 204.962 177.35 201.471 180.765C197.98 184.181 193.842 186.865 189.299 188.659C184.757 190.453 179.901 191.322 175.018 191.214C165.438 191.002 156.321 187.048 149.62 180.199C142.918 173.349 139.165 164.148 139.162 154.565C139.16 144.983 142.909 135.78 149.607 128.927C156.305 122.074 165.42 118.116 175 117.899ZM175 172.899C170.138 172.899 165.474 170.967 162.036 167.529C158.598 164.091 156.667 159.428 156.667 154.566C156.667 149.703 158.598 145.04 162.036 141.602C165.474 138.164 170.138 136.232 175 136.232C179.862 136.232 184.525 138.164 187.964 141.602C191.402 145.04 193.333 149.703 193.333 154.566C193.333 159.428 191.402 164.091 187.964 167.529C184.525 170.967 179.862 172.899 175 172.899ZM175 44.5656C160.555 44.5656 146.251 47.4108 132.905 52.9388C119.559 58.4668 107.433 66.5694 97.2182 76.7838C87.0038 86.9982 78.9012 99.1246 73.3732 112.47C67.8452 125.816 64.9999 140.12 64.9999 154.566C64.9999 169.011 67.8452 183.315 73.3732 196.661C78.9012 210.007 87.0038 222.133 97.2182 232.347C107.433 242.562 119.559 250.664 132.905 256.192C146.251 261.72 160.555 264.566 175 264.566C204.174 264.566 232.153 252.976 252.782 232.347C273.411 211.718 285 183.739 285 154.566C285 125.392 273.411 97.4128 252.782 76.7838C232.153 56.1548 204.174 44.5656 175 44.5656Z" fill="url(#paint0_linear_243_1796)"/>
</g>
</g>
<g filter="url(#filter3_d_243_1796)">
<rect x="54.9999" y="296.565" width="240" height="10" fill="#F89A65"/>
</g>
<g filter="url(#filter4_d_243_1796)">
<circle cx="103" cy="301.565" r="15" fill="white"/>
<circle cx="103" cy="301.565" r="12.5" stroke="url(#paint1_linear_243_1796)" stroke-width="5"/>
</g>
<g filter="url(#filter5_d_243_1796)">
<circle cx="215" cy="301.565" r="15" fill="white"/>
<circle cx="215" cy="301.565" r="12.5" stroke="url(#paint2_linear_243_1796)" stroke-width="5"/>
</g>
<defs>
<filter id="filter0_d_243_1796" x="55.1192" y="34.8356" width="249.12" height="249.114" filterUnits="userSpaceOnUse" color-interpolation-filters="sRGB">
<feFlood flood-opacity="0" result="BackgroundImageFix"/>
<feColorMatrix in="SourceAlpha" type="matrix" values="0 0 0 0 0 0 0 0 0 0 0 0 0 0 0 0 0 0 127 0" result="hardAlpha"/>
<feOffset dx="2" dy="2"/>
<feGaussianBlur stdDeviation="1"/>
<feComposite in2="hardAlpha" operator="out"/>
<feColorMatrix type="matrix" values="0 0 0 0 0 0 0 0 0 0 0 0 0 0 0 0 0 0 0.25 0"/>
<feBlend mode="normal" in2="BackgroundImageFix" result="effect1_dropShadow_243_1796"/>
<feBlend mode="normal" in="SourceGraphic" in2="effect1_dropShadow_243_1796" result="shape"/>
</filter>
<filter id="filter1_d_243_1796" x="64.9999" y="44.5656" width="228" height="228" filterUnits="userSpaceOnUse" color-interpolation-filters="sRGB">
<feFlood flood-opacity="0" result="BackgroundImageFix"/>
<feColorMatrix in="SourceAlpha" type="matrix" values="0 0 0 0 0 0 0 0 0 0 0 0 0 0 0 0 0 0 127 0" result="hardAlpha"/>
<feOffset dx="4" dy="4"/>
<feGaussianBlur stdDeviation="2"/>
<feComposite in2="hardAlpha" operator="out"/>
<feColorMatrix type="matrix" values="0 0 0 0 0 0 0 0 0 0 0 0 0 0 0 0 0 0 0.25 0"/>
<feBlend mode="normal" in2="BackgroundImageFix" result="effect1_dropShadow_243_1796"/>
<feBlend mode="normal" in="SourceGraphic" in2="effect1_dropShadow_243_1796" result="shape"/>
</filter>
<filter id="filter2_d_243_1796" x="60.9999" y="40.5656" width="228" height="228" filterUnits="userSpaceOnUse" color-interpolation-filters="sRGB">
<feFlood flood-opacity="0" result="BackgroundImageFix"/>
<feColorMatrix in="SourceAlpha" type="matrix" values="0 0 0 0 0 0 0 0 0 0 0 0 0 0 0 0 0 0 127 0" result="hardAlpha"/>
<feOffset/>
<feGaussianBlur stdDeviation="2"/>
<feComposite in2="hardAlpha" operator="out"/>
<feColorMatrix type="matrix" values="0 0 0 0 0 0 0 0 0 0 0 0 0 0 0 0 0 0 0.25 0"/>
<feBlend mode="normal" in2="BackgroundImageFix" result="effect1_dropShadow_243_1796"/>
<feBlend mode="normal" in="SourceGraphic" in2="effect1_dropShadow_243_1796" result="shape"/>
</filter>
<filter id="filter3_d_243_1796" x="52.9999" y="294.565" width="248" height="18" filterUnits="userSpaceOnUse" color-interpolation-filters="sRGB">
<feFlood flood-opacity="0" result="BackgroundImageFix"/>
<feColorMatrix in="SourceAlpha" type="matrix" values="0 0 0 0 0 0 0 0 0 0 0 0 0 0 0 0 0 0 127 0" result="hardAlpha"/>
<feOffset dx="2" dy="2"/>
<feGaussianBlur stdDeviation="2"/>
<feComposite in2="hardAlpha" operator="out"/>
<feColorMatrix type="matrix" values="0 0 0 0 0 0 0 0 0 0 0 0 0 0 0 0 0 0 0.25 0"/>
<feBlend mode="normal" in2="BackgroundImageFix" result="effect1_dropShadow_243_1796"/>
<feBlend mode="normal" in="SourceGraphic" in2="effect1_dropShadow_243_1796" result="shape"/>
</filter>
<filter id="filter4_d_243_1796" x="85.9999" y="284.565" width="38" height="38" filterUnits="userSpaceOnUse" color-interpolation-filters="sRGB">
<feFlood flood-opacity="0" result="BackgroundImageFix"/>
<feColorMatrix in="SourceAlpha" type="matrix" values="0 0 0 0 0 0 0 0 0 0 0 0 0 0 0 0 0 0 127 0" result="hardAlpha"/>
<feOffset dx="2" dy="2"/>
<feGaussianBlur stdDeviation="2"/>
<feComposite in2="hardAlpha" operator="out"/>
<feColorMatrix type="matrix" values="0 0 0 0 0 0 0 0 0 0 0 0 0 0 0 0 0 0 0.25 0"/>
<feBlend mode="normal" in2="BackgroundImageFix" result="effect1_dropShadow_243_1796"/>
<feBlend mode="normal" in="SourceGraphic" in2="effect1_dropShadow_243_1796" result="shape"/>
</filter>
<filter id="filter5_d_243_1796" x="198" y="284.565" width="38" height="38" filterUnits="userSpaceOnUse" color-interpolation-filters="sRGB">
<feFlood flood-opacity="0" result="BackgroundImageFix"/>
<feColorMatrix in="SourceAlpha" type="matrix" values="0 0 0 0 0 0 0 0 0 0 0 0 0 0 0 0 0 0 127 0" result="hardAlpha"/>
<feOffset dx="2" dy="2"/>
<feGaussianBlur stdDeviation="2"/>
<feComposite in2="hardAlpha" operator="out"/>
<feColorMatrix type="matrix" values="0 0 0 0 0 0 0 0 0 0 0 0 0 0 0 0 0 0 0.25 0"/>
<feBlend mode="normal" in2="BackgroundImageFix" result="effect1_dropShadow_243_1796"/>
<feBlend mode="normal" in="SourceGraphic" in2="effect1_dropShadow_243_1796" result="shape"/>
</filter>
<linearGradient id="paint0_linear_243_1796" x1="175" y1="44.5656" x2="175" y2="264.566" gradientUnits="userSpaceOnUse">
<stop stop-color="#F89A65"/>
<stop offset="0.45" stop-color="#F47220"/>
<stop offset="0.5" stop-color="#F47220"/>
<stop offset="0.55" stop-color="#F47220"/>
<stop offset="1" stop-color="#F89A65"/>
</linearGradient>
<linearGradient id="paint1_linear_243_1796" x1="103" y1="286.565" x2="103" y2="316.565" gradientUnits="userSpaceOnUse">
<stop stop-color="#F89A65"/>
<stop offset="0.45" stop-color="#F47220"/>
<stop offset="0.5" stop-color="#F47220"/>
<stop offset="0.55" stop-color="#F47220"/>
<stop offset="1" stop-color="#F89A65"/>
</linearGradient>
<linearGradient id="paint2_linear_243_1796" x1="215" y1="286.565" x2="215" y2="316.565" gradientUnits="userSpaceOnUse">
<stop stop-color="#F89A65"/>
<stop offset="0.45" stop-color="#F47220"/>
<stop offset="0.5" stop-color="#F47220"/>
<stop offset="0.55" stop-color="#F47220"/>
<stop offset="1" stop-color="#F89A65"/>
</linearGradient>
</defs>
</svg>
