<svg width="4" height="18" viewBox="0 0 4 18" fill="none" xmlns="http://www.w3.org/2000/svg">
<path d="M1.90688 14.1538C0.848559 14.1538 0 15.0127 0 16.0912C0 17.141 0.848559 18 1.90688 18C2.96519 18 3.81375 17.141 3.81375 16.0912C3.81375 15.0127 2.96519 14.1538 1.90688 14.1538ZM1.90688 7.0912C0.848559 7.0912 0 7.94061 0 9C0 10.0498 0.848559 10.8993 1.90688 10.8993C2.96519 10.8993 3.81375 10.0498 3.81375 9C3.81375 7.94061 2.96519 7.0912 1.90688 7.0912ZM1.90688 0C0.848559 0 0 0.849417 0 1.9088C0 2.98727 0.848559 3.83669 1.90688 3.83669C2.96519 3.83669 3.81375 2.98727 3.81375 1.9088C3.81375 0.849417 2.96519 0 1.90688 0Z" fill="#3C3C43" fill-opacity="0.6"/>
</svg>
