<svg width="18" height="18" viewBox="0 0 18 18" fill="none" xmlns="http://www.w3.org/2000/svg">
<path d="M18 0V12.5C18 13.4283 17.6507 14.3185 17.0288 14.9749C16.407 15.6313 15.5636 16 14.6842 16C13.8048 16 12.9614 15.6313 12.3396 14.9749C11.7178 14.3185 11.3684 13.4283 11.3684 12.5C11.3684 11.5717 11.7178 10.6815 12.3396 10.0251C12.9614 9.36875 13.8048 9 14.6842 9C15.1958 9 15.6789 9.12 16.1053 9.34V3.47L6.63158 5.6V14.5C6.63158 15.4283 6.28224 16.3185 5.66041 16.9749C5.03858 17.6313 4.19519 18 3.31579 18C2.43639 18 1.593 17.6313 0.971172 16.9749C0.349341 16.3185 0 15.4283 0 14.5C0 13.5717 0.349341 12.6815 0.971172 12.0251C1.593 11.3687 2.43639 11 3.31579 11C3.82737 11 4.31053 11.12 4.73684 11.34V3L18 0Z" fill="#3C3C43"/>
</svg>
