<svg width="20" height="20" viewBox="0 0 20 20" fill="none" xmlns="http://www.w3.org/2000/svg">
<path d="M10 19C14.9706 19 19 14.9706 19 10C19 5.02944 14.9706 1 10 1C5.02944 1 1 5.02944 1 10C1 14.9706 5.02944 19 10 19Z" stroke="#3C3C43" stroke-width="1.5" stroke-linecap="round" stroke-linejoin="round"/>
<path d="M7.08108 8.78378C7.75278 8.78378 8.2973 8.23926 8.2973 7.56757C8.2973 6.89587 7.75278 6.35135 7.08108 6.35135C6.40938 6.35135 5.86486 6.89587 5.86486 7.56757C5.86486 8.23926 6.40938 8.78378 7.08108 8.78378Z" fill="#3C3C43"/>
<path d="M12.9189 8.78378C13.5906 8.78378 14.1351 8.23926 14.1351 7.56757C14.1351 6.89587 13.5906 6.35135 12.9189 6.35135C12.2472 6.35135 11.7027 6.89587 11.7027 7.56757C11.7027 8.23926 12.2472 8.78378 12.9189 8.78378Z" fill="#3C3C43"/>
<path d="M13.3704 12.1892C13.0288 12.7808 12.5375 13.2721 11.9459 13.6136C11.3542 13.9552 10.6831 14.135 10 14.135C9.31687 14.135 8.64577 13.9552 8.05415 13.6136C7.46253 13.2721 6.97123 12.7808 6.62963 12.1892" stroke="#3C3C43" stroke-width="1.5" stroke-linecap="round" stroke-linejoin="round"/>
</svg>
